<?xml version="1.0" encoding="utf-8"?>
<!-- Generator: Adobe Illustrator 19.0.0, SVG Export Plug-In . SVG Version: 6.00 Build 0)  -->
<svg version="1.1" id="Layer_1" xmlns="http://www.w3.org/2000/svg" xmlns:xlink="http://www.w3.org/1999/xlink" x="0px" y="0px"
	 viewBox="0 0 700 700" style="enable-background:new 0 0 700 700;" xml:space="preserve">
<style type="text/css">
	.st0{fill:#D2DCF0;}
	.st1{fill:#464655;}
	.st2{fill:#FF6469;}
	.st3{fill:#FFE169;}
	.st4{fill:#87E1AA;}
	.st5{fill:#E4EAF6;}
	.st6{fill:#D2555F;}
</style>
<path class="st0" d="M650.9,95.8H49.1c-19.4,0-35.3,15.9-35.3,35.3v437.8c0,19.4,15.9,35.3,35.3,35.3h601.8
	c19.4,0,35.3-15.9,35.3-35.3V131.1C686.2,111.7,670.3,95.8,650.9,95.8z"/>
<path class="st1" d="M655.5,164.9h-610c-3.8,0-6.9,3.1-6.9,6.9v400c0,3.8,3.1,6.9,6.9,6.9h610c3.8,0,6.9-3.1,6.9-6.9v-400
	C662.4,168,659.3,164.9,655.5,164.9z"/>
<circle class="st2" cx="49.4" cy="129.1" r="11.3"/>
<circle class="st3" cx="83.8" cy="129.1" r="11.3"/>
<circle class="st4" cx="118.2" cy="129.1" r="11.3"/>
<path class="st5" d="M164.4,141.3h12c6.4,0,11.6-5.2,11.6-11.6V129c0-6.4-5.2-11.6-11.6-11.6h-12c-6.4,0-11.6,5.2-11.6,11.6v0.8
	C152.8,136.1,158,141.3,164.4,141.3z"/>
<path class="st5" d="M600.9,141.3h-14c-6.6,0-12-5.4-12-12v0c0-6.6,5.4-12,12-12h14c6.6,0,12,5.4,12,12v0
	C612.9,135.9,607.5,141.3,600.9,141.3z"/>
<path class="st5" d="M650.5,141.3h-14c-6.6,0-12-5.4-12-12v0c0-6.6,5.4-12,12-12h14c6.6,0,12,5.4,12,12v0
	C662.4,135.9,657,141.3,650.5,141.3z"/>
<path class="st5" d="M210.7,141.3h12c6.4,0,11.6-5.2,11.6-11.6V129c0-6.4-5.2-11.6-11.6-11.6h-12c-6.4,0-11.6,5.2-11.6,11.6v0.8
	C199.1,136.1,204.3,141.3,210.7,141.3z"/>
<path class="st5" d="M542.2,117.4H264.6c-6.6,0-12,5.4-12,12c0,6.6,5.4,12,12,12h277.6c6.6,0,12-5.4,12-12
	C554.1,122.8,548.7,117.4,542.2,117.4z"/>
<g>
	<g>
		<g>
			<path class="st6" d="M259.5,477c1.3,1.3,2.9,2,4.6,2c1.7,0,3.3-0.7,4.6-2l10-10c1.3-1.3,2-2.9,2-4.6c0-1.7-0.7-3.3-2-4.6
				l-78.6-78.6l78.6-78.6c1.3-1.3,2-2.9,2-4.6s-0.7-3.3-2-4.6l-10-10c-1.3-1.3-2.9-2-4.6-2c-1.7,0-3.3,0.7-4.6,2l-93.3,93.3
				c-1.3,1.3-2,2.9-2,4.6c0,1.7,0.7,3.3,2,4.6L259.5,477z"/>
			<path class="st6" d="M528.5,374.5l-93.3-93.3c-1.3-1.3-2.9-2-4.6-2c-1.7,0-3.3,0.7-4.6,2l-10,10c-1.3,1.3-2,2.9-2,4.6
				s0.7,3.3,2,4.6l78.6,78.6L416,457.8c-1.3,1.3-2,2.9-2,4.6c0,1.7,0.7,3.3,2,4.6l10,10c1.3,1.3,2.9,2,4.6,2c1.7,0,3.3-0.7,4.6-2
				l93.3-93.3c1.3-1.3,2-2.9,2-4.6C530.5,377.4,529.8,375.8,528.5,374.5z"/>
		</g>
	</g>
	<path class="st2" d="M389.2,243c-7-2-14.4,2.1-16.4,9.1l-70.2,246.7c-2,7,2.1,14.4,9.1,16.4c7,2,14.4-2.1,16.4-9.1l70.2-246.7
		C400.3,252.4,396.2,245,389.2,243z"/>
</g>
</svg>
