<?xml version="1.0" encoding="iso-8859-1"?>
<!-- Generator: Adobe Illustrator 19.0.0, SVG Export Plug-In . SVG Version: 6.00 Build 0)  -->
<svg version="1.1" id="Layer_1" xmlns="http://www.w3.org/2000/svg" xmlns:xlink="http://www.w3.org/1999/xlink" x="0px" y="0px"
	 viewBox="0 0 475.107 475.107" style="enable-background:new 0 0 475.107 475.107;" xml:space="preserve">
<circle style="fill:#E1E1E1;" cx="236.967" cy="236.988" r="236.967"/>
<path style="fill:#D1D1D1;" d="M405.7,70.539c92.542,92.542,92.546,242.591-0.004,335.141c-92.546,92.542-242.595,92.542-335.137,0
	L405.7,70.539z"/>
<path style="fill:#C8C8C8;" d="M473.692,247.589l-85.279-85.279l-24.928,14.166l-17.223,27.985l-41.201-41.205l-17.583,12.438
	l-19.038,24.183l-36.834-36.834l-35.663,35.667l-34.844-34.84L97.2,163.219l-7.491,7.499l36.25,36.25l63.083,161.57l99.674,99.678
	C391.365,445.342,468.91,355.947,473.692,247.589z"/>
<path style="fill:#4E4E4E;" d="M388.05,162.489c0,0-46.447,0-61.889,0l-4.423,0.76v5.942c0,0.703,2.107,1.287,2.694,1.721
	c0.558,0.468,2.073,0.726,2.698,0.726l5.605,0.281c6.361,0.296,8.299,1.676,10.773,4.007c2.436,2.41,2.833,6.499,0.935,12.251
	l-54.69,142.787l-2.088-0.621l-34.746-78.162c0.505-1.171,0.804-1.826,0.804-1.826l28.449-58.465
	c3.308-6.166,6.507-11.678,8.142-14.249c2.967-4.685,4.419-5.564,12.513-5.976c1.654,0,2.282-0.816,2.282-2.455v-5.912l-0.412-0.636
	c0,0-34.002-0.116-49.489,0l0.011,0.606v5.92c0,0.722-0.393,1.302,0.15,1.736c0.584,0.468,0.834,0.711,1.463,0.711l2.32,0.292
	c6.331,0.299,9.156,2.118,10.024,3.255c1.512,2.047,2.215,4.228-1.444,13.014l-21.904,47.955l-19.79-44.494
	c-6.488-14.208-8.097-18.608,1.688-19.435l2.63-0.602c1.882,0,1.587-0.748,1.587-2.163v-6.215l-0.198-0.516
	c0,0-36.254,0-52.793,0.011l-0.228,0.614v6.234c0,1.396,1.384,1.762,3.944,2.144c9.16,1.321,9.003,2.372,18.054,22.106
	c1.355,2.96,5.351,11.876,5.351,11.876l20.64,44.535c0,0,2.339,5.721,6.002,14.6l-29.987,65.728l-1.714-0.475
	c0,0-46.537-107.831-59.992-143.905c-1.418-3.719-2.036-6.499-2.036-8.213c0-3.663,3.008-5.654,9.025-5.916l9.145-0.329
	c1.871,0,4.935-0.782,4.935-2.417v-5.916l-2.754-0.614c0,0-57.01-0.071-68.523,0l-1.897,0.614v6.223
	c0,1.115,1.493,1.811,4.079,2.107c7.083,0.43,11.839,1.658,14.073,3.738c2.223,2.088,4.632,7.364,7.757,15.592
	c16.92,44.647,52.89,124.328,70.398,169.716c5.033,12.382,11.386,14.309,19.072-0.393c7.91-16.123,23.873-51.917,35.513-78.338
	c10.896,26.353,25.725,62.009,32.879,78.17c5.695,12.928,12.191,14.2,18.78,0.389c17.235-42.088,67.588-168.755,67.588-168.755
	c2.178-6.219,5.22-11.005,9.134-14.488c3.884-3.435,9.673-5.381,17.785-5.755c1.643,0,2.286-0.834,2.286-2.436v-5.942
	L388.05,162.489z"/>
<g>
</g>
<g>
</g>
<g>
</g>
<g>
</g>
<g>
</g>
<g>
</g>
<g>
</g>
<g>
</g>
<g>
</g>
<g>
</g>
<g>
</g>
<g>
</g>
<g>
</g>
<g>
</g>
<g>
</g>
</svg>
